<svg width="26" height="27" viewBox="0 0 26 27" fill="" xmlns="http://www.w3.org/2000/svg">
<path fill-rule="evenodd" clip-rule="evenodd" d="M3.1935 9.33333C2.46955 9.33333 1.77526 9.05238 1.26336 8.55229C0.751452 8.05219 0.463867 7.37391 0.463867 6.66667V2.66667C0.463867 1.95942 0.751452 1.28115 1.26336 0.781049C1.77526 0.280952 2.46955 0 3.1935 0H8.65276C9.3767 0 10.071 0.280952 10.5829 0.781049C11.0948 1.28115 11.3824 1.95942 11.3824 2.66667V6.66667C11.3824 7.37391 11.0948 8.05219 10.5829 8.55229C10.071 9.05238 9.3767 9.33333 8.65276 9.33333H3.1935ZM3.1935 26.6667C2.46955 26.6667 1.77526 26.3857 1.26336 25.8856C0.751452 25.3855 0.463867 24.7072 0.463867 24V13.3333C0.463867 12.6261 0.751452 11.9478 1.26336 11.4477C1.77526 10.9476 2.46955 10.6667 3.1935 10.6667H8.65276C9.3767 10.6667 10.071 10.9476 10.5829 11.4477C11.0948 11.9478 11.3824 12.6261 11.3824 13.3333V24C11.3824 24.7072 11.0948 25.3855 10.5829 25.8856C10.071 26.3857 9.3767 26.6667 8.65276 26.6667H3.1935ZM16.8416 26.6667C16.1177 26.6667 15.4234 26.3857 14.9115 25.8856C14.3996 25.3855 14.112 24.7072 14.112 24V21.3333C14.112 20.6261 14.3996 19.9478 14.9115 19.4477C15.4234 18.9476 16.1177 18.6667 16.8416 18.6667H22.3009C23.0248 18.6667 23.7191 18.9476 24.231 19.4477C24.7429 19.9478 25.0305 20.6261 25.0305 21.3333V24C25.0305 24.7072 24.7429 25.3855 24.231 25.8856C23.7191 26.3857 23.0248 26.6667 22.3009 26.6667H16.8416ZM16.8416 16C16.1177 16 15.4234 15.7191 14.9115 15.219C14.3996 14.7189 14.112 14.0406 14.112 13.3333V2.66667C14.112 1.95942 14.3996 1.28115 14.9115 0.781049C15.4234 0.280952 16.1177 0 16.8416 0H22.3009C23.0248 0 23.7191 0.280952 24.231 0.781049C24.7429 1.28115 25.0305 1.95942 25.0305 2.66667V13.3333C25.0305 14.0406 24.7429 14.7189 24.231 15.219C23.7191 15.7191 23.0248 16 22.3009 16H16.8416Z" fill="#E6E9F1"/>
</svg>
