<svg width="26" height="26" viewBox="0 0 26 26" fill="#eee" xmlns="http://www.w3.org/2000/svg">
<path d="M6.33333 17H3.66667C2.19391 17 1 18.1939 1 19.6667V22.3333C1 23.8061 2.19391 25 3.66667 25H6.33333C7.80609 25 9 23.8061 9 22.3333V19.6667C9 18.1939 7.80609 17 6.33333 17Z" stroke="#787878" stroke-width="2" stroke-linecap="round" stroke-linejoin="round"/>
<path d="M22.3333 17H19.6667C18.1939 17 17 18.1939 17 19.6667V22.3333C17 23.8061 18.1939 25 19.6667 25H22.3333C23.8061 25 25 23.8061 25 22.3333V19.6667C25 18.1939 23.8061 17 22.3333 17Z" stroke="#787878" stroke-width="2" stroke-linecap="round" stroke-linejoin="round"/>
<path d="M14.3333 1H11.6667C10.1939 1 9 2.19391 9 3.66667V6.33333C9 7.80609 10.1939 9 11.6667 9H14.3333C15.8061 9 17 7.80609 17 6.33333V3.66667C17 2.19391 15.8061 1 14.3333 1Z" stroke="#787878" stroke-width="2" stroke-linecap="round" stroke-linejoin="round"/>
<path d="M5 17V15.6667C5 14.9594 5.28095 14.2811 5.78105 13.781C6.28115 13.281 6.95942 13 7.66667 13H18.3333C19.0406 13 19.7189 13.281 20.219 13.781C20.719 14.2811 21 14.9594 21 15.6667V17M13 9V13" stroke="#787878" stroke-width="2" stroke-linecap="round" stroke-linejoin="round"/>
</svg>
