<svg width="26" height="27" viewBox="0 0 26 27" fill="none" xmlns="http://www.w3.org/2000/svg">
<path d="M12.7519 9.70386C11.8852 9.70386 11.0735 10.0496 10.4589 10.6816C9.84725 11.3135 9.50808 12.1481 9.50808 13.0393C9.50808 13.9306 9.84725 14.7652 10.4589 15.3971C11.0735 16.0261 11.8852 16.3748 12.7519 16.3748C13.6187 16.3748 14.4304 16.0261 15.0449 15.3971C15.6566 14.7652 15.9957 13.9306 15.9957 13.0393C15.9957 12.1481 15.6566 11.3135 15.0449 10.6816C14.7448 10.3705 14.3875 10.1239 13.9938 9.9561C13.6002 9.78826 13.1781 9.70252 12.7519 9.70386ZM24.704 16.7235L22.8081 15.0573C22.898 14.491 22.9443 13.9127 22.9443 13.3374C22.9443 12.7621 22.898 12.1809 22.8081 11.6175L24.704 9.95127C24.8472 9.8252 24.9497 9.65729 24.9978 9.46987C25.046 9.28245 25.0375 9.08439 24.9735 8.90204L24.9475 8.82454C24.4257 7.32429 23.6439 5.93366 22.64 4.72003L22.5878 4.65744C22.4659 4.51004 22.3034 4.40409 22.1217 4.35354C21.9401 4.30299 21.7478 4.31022 21.5703 4.37426L19.2164 5.2357C18.3467 4.50244 17.3785 3.92417 16.3291 3.52177L15.874 0.991103C15.8397 0.80046 15.7497 0.625072 15.6161 0.488242C15.4825 0.351411 15.3116 0.259614 15.1261 0.225047L15.0478 0.210144C13.5404 -0.0700478 11.9518 -0.0700478 10.4444 0.210144L10.3661 0.225047C10.1806 0.259614 10.0097 0.351411 9.8761 0.488242C9.74251 0.625072 9.65258 0.80046 9.61824 0.991103L9.16022 3.53369C8.12076 3.9393 7.15244 4.51617 6.29324 5.24166L3.92196 4.37426C3.74445 4.30971 3.55204 4.30222 3.37029 4.3528C3.18854 4.40338 3.02607 4.50963 2.90446 4.65744L2.85228 4.72003C1.85012 5.93496 1.06852 7.32524 0.544778 8.82454L0.518688 8.90204C0.388239 9.27463 0.495497 9.69194 0.788283 9.95127L2.70733 11.6354C2.61747 12.1958 2.57399 12.7681 2.57399 13.3344C2.57399 13.9067 2.61747 14.479 2.70733 15.0335L0.79408 16.7176C0.650864 16.8437 0.548362 17.0116 0.500205 17.199C0.452047 17.3864 0.460516 17.5845 0.524486 17.7668L0.550575 17.8443C1.07527 19.3436 1.84927 20.7297 2.85808 21.9488L2.91025 22.0114C3.03216 22.1588 3.19465 22.2648 3.37628 22.3153C3.55792 22.3659 3.75019 22.3586 3.92776 22.2946L6.29903 21.4272C7.1629 22.1575 8.12532 22.7357 9.16601 23.1352L9.62404 25.6777C9.65837 25.8684 9.74831 26.0438 9.8819 26.1806C10.0155 26.3174 10.1864 26.4092 10.3719 26.4438L10.4502 26.4587C11.9725 26.7404 13.5314 26.7404 15.0536 26.4587L15.1319 26.4438C15.3174 26.4092 15.4883 26.3174 15.6219 26.1806C15.7555 26.0438 15.8455 25.8684 15.8798 25.6777L16.3349 23.1471C17.3843 22.7417 18.3525 22.1664 19.2222 21.4331L21.5761 22.2946C21.7536 22.3591 21.946 22.3666 22.1277 22.3161C22.3095 22.2655 22.472 22.1592 22.5936 22.0114L22.6458 21.9488C23.6546 20.7237 24.4286 19.3436 24.9533 17.8443L24.9793 17.7668C25.104 17.3972 24.9967 16.9829 24.704 16.7235ZM12.7519 18.2795C9.93711 18.2795 7.6557 15.9336 7.6557 13.0393C7.6557 10.145 9.93711 7.79916 12.7519 7.79916C15.5667 7.79916 17.8481 10.145 17.8481 13.0393C17.8481 15.9336 15.5667 18.2795 12.7519 18.2795Z" fill="#787878"/>
</svg>
